<svg width="30" height="30" viewBox="0 0 30 30" fill="none" xmlns="http://www.w3.org/2000/svg">
<g clip-path="url(#clip0)">
<path d="M21.875 30C21.7438 30 21.6125 29.9587 21.5012 29.875C21.185 29.64 13.75 24.0375 13.75 19.5387C13.75 17.0362 15.785 15 18.2875 15C19.7125 15 21.0287 15.6637 21.875 16.7537C22.72 15.6637 24.0363 15 25.4625 15C27.965 15 30 17.0362 30 19.5387C30 24.0387 22.565 29.64 22.2488 29.8762C22.1375 29.9587 22.0063 30 21.875 30ZM18.2875 16.25C16.475 16.25 15 17.7262 15 19.5387C15 22.575 19.6537 26.8488 21.875 28.5875C24.095 26.8475 28.75 22.5712 28.75 19.5387C28.75 17.7262 27.275 16.25 25.4625 16.25C24.1513 16.25 22.9688 17.0237 22.4488 18.2212C22.2513 18.6775 21.5 18.6775 21.3025 18.2212C20.7812 17.0237 19.5987 16.25 18.2875 16.25Z" fill="black"/>
<path d="M11.875 25H6.24999C4.87124 25 3.74999 23.8788 3.74999 22.5V13.75H1.24999C0.548742 13.75 -7.62939e-06 13.2013 -7.62939e-06 12.5C-7.62939e-06 12.1488 0.152492 11.8013 0.407492 11.5725L12.6987 0.167501C12.9387 -0.0549994 13.31 -0.0549994 13.5487 0.167501L17.5 3.83V1.875C17.5 1.53 17.78 1.25 18.125 1.25H21.875C22.22 1.25 22.5 1.53 22.5 1.875V8.465L25.85 11.5788C26.1025 11.8138 26.1175 12.2088 25.8825 12.4625C25.6475 12.715 25.2525 12.7313 24.9987 12.4938L21.4487 9.19375C21.3225 9.0775 21.25 8.91125 21.25 8.7375V2.5H18.75V5.2625C18.75 5.51125 18.6025 5.73625 18.375 5.835C18.1462 5.93375 17.8812 5.88875 17.7 5.72L13.125 1.4775L1.24999 12.495L4.37499 12.5C4.71999 12.5 4.99999 12.78 4.99999 13.125V22.5C4.99999 23.19 5.56124 23.75 6.24999 23.75H11.875C12.22 23.75 12.5 24.03 12.5 24.375C12.5 24.72 12.22 25 11.875 25Z" fill="black"/>
</g>
<defs>
<clipPath id="clip0">
<rect width="30" height="30" fill="white"/>
</clipPath>
</defs>
</svg>
